# xmcd
#
# Track frame offsets: 
#        150
#        13156
#        26582
#        42580
#        57981
#        72754
#        83938
#        99527
#        118653
#        136426
#        153223
#        172581
#        186770
#        203617
#        220426
#        237640
#        254983
#
# Disc length: 3639 seconds
#
# Revision: 0
# Processed by: cddbd v1.5.1PL0 Copyright (c) Steve Scherf et al.
# Submitted via: ExactAudioCopy v0.95a4
#
DISCID=f60e3511
DTITLE=Hank Williams III - 2001-09-06 The Vouge
DYEAR=2001
DGENRE=Country
TTITLE0=Juke-Joint Jumpin'
TTITLE1=If The Shoe Fits 
TTITLE2=Wine Spodeeodee 
TTITLE3=Wanted Man
TTITLE4=87 Southbound
TTITLE5=Luvin' Huggin' 
TTITLE6=7 Months, 39 Days 
TTITLE7=I Don't Know
TTITLE8=Walkin' With Sorrow 
TTITLE9=Nighttime Ramblin' Man 
TTITLE10=Thunderstorms and Neon Signs 
TTITLE11=Trashville 
TTITLE12=Kaw-Liga
TTITLE13=Whiskey Bent And Hellbound
TTITLE14=Orange Blossom Special 
TTITLE15=Cocaine Blues
TTITLE16=Dick In Dixie, Cunt In Country
EXTD=
EXTT0=
EXTT1=
EXTT2=
EXTT3=
EXTT4=
EXTT5=
EXTT6=
EXTT7=
EXTT8=
EXTT9=
EXTT10=
EXTT11=
EXTT12=
EXTT13=
EXTT14=
EXTT15=
EXTT16=
PLAYORDER=
